HIERARCHY
ROOT Hips
{
  OFFSET 179.561 108.161 -168.072
  CHANNELS 6 Xposition Yposition Zposition Zrotation Xrotation Yrotation
  JOINT ToSpine
  {
    OFFSET -2.69724 7.43032 -0.144315
    CHANNELS 3 Zrotation Xrotation Yrotation
    JOINT Spine
    {
      OFFSET -0.0310711 10.7595 1.96963
      CHANNELS 3 Zrotation Xrotation Yrotation
      JOINT Spine1
      {
        OFFSET 19.9056 3.91189 0.764692
        CHANNELS 3 Zrotation Xrotation Yrotation
        JOINT Neck
        {
          OFFSET 25.9749 7.03908 -0.130764
          CHANNELS 3 Zrotation Xrotation Yrotation
          JOINT Head
          {
            OFFSET 9.52751 0.295786 -0.907742
            CHANNELS 3 Zrotation Xrotation Yrotation
            End Site
            {
              OFFSET 16.4037 0.713936 2.7358
            }
          }
        }
        JOINT LeftShoulder
        {
          OFFSET 17.7449 4.33886 11.7777
          CHANNELS 3 Zrotation Xrotation Yrotation
          JOINT LeftArm
          {
            OFFSET 0.911315 1.27913 9.80584
            CHANNELS 3 Zrotation Xrotation Yrotation
            JOINT LeftForeArm
            {
              OFFSET 28.6126 1.18197 -3.53199
              CHANNELS 3 Zrotation Xrotation Yrotation
              JOINT LeftHand
              {
                OFFSET 27.5088 0.0218783 0.327423
                CHANNELS 3 Zrotation Xrotation Yrotation
                End Site
                {
                  OFFSET 18.6038 -0.000155887 0.382096
                }
              }
            }
          }
        }
        JOINT RightShoulder
        {
          OFFSET 17.1009 2.89543 -12.2328
          CHANNELS 3 Zrotation Xrotation Yrotation
          JOINT RightArm
          {
            OFFSET 1.4228 0.178766 -10.211
            CHANNELS 3 Zrotation Xrotation Yrotation
            JOINT RightForeArm
            {
              OFFSET 28.733 1.87905 2.64907
              CHANNELS 3 Zrotation Xrotation Yrotation
              JOINT RightHand
              {
                OFFSET 27.4588 0.290562 -0.101845
                CHANNELS 3 Zrotation Xrotation Yrotation
                End Site
                {
                  OFFSET 17.8396 -0.255518 -0.000602873
                }
              }
            }
          }
        }
      }
    }
  }
  JOINT LeftUpLeg
  {
    OFFSET -5.61296 -2.22332 -10.2353
    CHANNELS 3 Zrotation Xrotation Yrotation
    JOINT LeftLeg
    {
      OFFSET 2.56703 -44.7417 -7.93097
      CHANNELS 3 Zrotation Xrotation Yrotation
      JOINT LeftFoot
      {
        OFFSET 3.16933 -46.5642 -3.96578
        CHANNELS 3 Zrotation Xrotation Yrotation
        JOINT LeftToeBase
        {
          OFFSET 0.346054 -6.02161 12.8035
          CHANNELS 3 Zrotation Xrotation Yrotation
          End Site
          {
            OFFSET 0.134235 -1.35082 5.13018
          }
        }
      }
    }
  }
  JOINT RightUpLeg
  {
    OFFSET -5.7928 -1.72406 10.6446
    CHANNELS 3 Zrotation Xrotation Yrotation
    JOINT RightLeg
    {
      OFFSET -2.57161 -44.7178 -7.85259
      CHANNELS 3 Zrotation Xrotation Yrotation
      JOINT RightFoot
      {
        OFFSET -3.10148 -46.5936 -4.03391
        CHANNELS 3 Zrotation Xrotation Yrotation
        JOINT RightToeBase
        {
          OFFSET -0.0828122 -6.13587 12.8035
          CHANNELS 3 Zrotation Xrotation Yrotation
          End Site
          {
            OFFSET -0.131328 -1.35082 5.13018
          }
        }
      }
    }
  }
}
MOTION
Frames:	8
Frame Time:	0.0333333
-262.67 90.1216 282.946 -64.1145 -43.2208 -158.003 -70.1915 0 88.8779 141.398 65.0671 -48.2248 12.3219 21.1426 7.88637 -170.836 24.6894 -161.666 -162.803 66.6416 -176.517 3.0704 -2.04484 -37.4192 -71.9205 42.9168 -114.158 0.597448 18.8958 -14.527 11.2556 -0.801205 -6.25626 0.367525 0.333525 -4.17698 -54.6021 -71.9593 125.867 27.5652 -12.6301 65.2537 11.5572 0.504221 4.90063 -18.4543 -0.208033 82.1424 -49.9926 85.2376 44.2377 2.53745 6.11817 -0.115648 -6.7189 -26.569 17.8185 -30.193 5.09231 82.0453 10.7184 73.38 -2.64545 -8.15254 -8.00794 1.16436 7.45825 -7.35098 -15.8867 
-257.28 86.9834 276.587 -65.938 -48.3978 -157.73 -70.1915 0 88.8779 139.146 62.3963 -44.0861 13.664 19.2951 3.84027 -166.029 24.8555 -171.1 -155.723 64.6655 178.416 2.66142 -2.2657 -32.5589 -67.7166 38.115 -125.403 4.20128 12.7669 -18.6439 13.3215 -0.918322 -6.01746 0.278568 1.04545 8.97589 -65.076 -63.4744 112.085 17.0936 -12.5908 49.8227 9.83566 0.355929 4.05061 -24.1203 -0.486629 81.723 -163.204 74.8737 162.069 4.6318 4.76973 -0.520139 -6.86968 -28.1702 18.4958 -26.0726 2.48566 78.8279 14.891 77.1532 -7.12221 -8.06884 -5.74316 1.15713 9.44704 -13.5721 -18.4357 
-252.723 85.6656 270.41 -65.8107 -53.3146 -155.089 -70.1915 0 88.8779 134.53 60.9813 -37.4853 15.7727 17.2303 0.412646 -162.29 24.1391 -179.101 -147.526 61.8027 170.217 2.12026 -3.43115 -27.5752 -72.5008 37.8714 -129.384 7.95165 11.8894 -25.7982 13.9426 -0.941186 -5.86019 0.141783 0.876638 19.676 -66.5684 -57.3583 106.736 12.0331 -14.1838 33.2349 7.81643 0.0534269 0.482385 -32.9455 1.26679 79.4419 -167.772 65.7249 165.221 6.58417 5.71699 -0.820785 -6.94479 -27.8664 13.443 -23.7881 0.488823 75.96 13.594 76.0495 -5.30181 -7.3795 -4.33755 1.09728 9.81614 -13.5056 -19.992 
-248.428 86.3913 264.506 -67.2067 -54.9231 -157.755 -70.1915 0 88.8779 130.392 61.04 -35.9153 15.5041 16.8244 -2.01166 -156.193 24.1907 174.407 -139.376 59.8638 164.801 1.85556 -3.94986 -24.3061 -77.6669 37.3325 -130.042 10.8768 11.3467 -37.825 17.1801 -1.22821 -6.30169 0.121379 0.324114 27.6423 -59.5476 -53.4608 104.442 7.66423 -12.7078 22.8634 7.05814 -0.0397274 -1.07578 -44.2181 2.90704 82.8874 -165.847 67.7521 157.366 6.57041 3.75248 -0.847828 -6.61627 -25.624 14.1223 -23.4915 -0.542244 77.0752 8.74475 70.4697 -0.503723 -6.37748 -2.29872 0.980413 10.047 -11.1539 -22.5201 
-243.29 88.2177 258.021 -66.1407 -55.2691 -158.207 -70.1915 0 88.8779 129.233 60.5601 -38.405 11.8668 16.1533 0.274335 -153.671 24.3004 173.074 -133.507 58.6 162.004 2.09501 -2.94266 -25.9994 -80.5199 31.9705 -130.621 11.7512 7.57819 -52.4819 16.0553 -1.05353 -5.65132 0.131369 0.163265 29.7302 -63.6684 -55.9235 92.5709 3.89805 -6.58356 21.1136 3.76659 0.00414043 -0.226661 -50.4039 1.69016 84.5733 -158.176 76.0257 144.405 5.06636 0.509368 -0.708978 -6.72324 -26.3927 14.1406 -21.3048 -1.36225 78.9162 5.29831 63.1035 1.36754 -6.98492 -1.89111 1.03801 6.83421 6.72048 -21.3376 
-236.71 91.9148 250.52 -63.4283 -54.3019 -157.36 -70.1915 0 88.8779 129.715 60.2339 -40.9933 10.1108 15.9688 1.49912 -155.005 24.3357 172.978 -130.75 58.118 161.897 2.01774 -2.8099 -24.5374 -84.4516 32.0057 -129.354 21.6337 9.68668 -64.6881 16.089 -1.36435 -7.77903 0.0233729 0.822724 29.7322 -62.9575 -59.0673 88.4764 0.769205 4.27248 23.3108 4.12112 -0.0245614 -1.18088 -50.3867 -1.22956 85.6998 -95.5653 85.5951 82.1336 5.01542 2.3662 -0.64994 -7.47093 -31.2645 13.1881 -21.7666 -1.47139 81.3575 2.54053 47.7284 3.50134 -5.88376 1.06176 0.862672 -3.66377 33.504 -10.4793 
-229.532 95.413 243.022 -60.7028 -51.5226 -156.629 -70.1915 0 88.8779 131.695 61.0848 -43.8612 9.00764 17.1383 2.43052 -156.903 24.9106 173.925 -130.628 59.0677 163.336 1.92535 -3.33949 -24.1596 -85.2054 32.5188 -125.961 24.1705 7.9788 -71.2119 18.4258 -1.36328 -6.57576 -0.0591877 1.35497 29.4633 -63.4048 -58.8547 88.5312 -1.09835 8.47596 23.4884 3.63397 0.00271349 -0.275109 -47.4559 -3.60501 87.3193 -16.9799 77.6534 5.23393 3.9478 1.72403 -0.523797 -7.14999 -29.3172 13.7657 -21.6388 -2.30655 81.7489 1.88263 33.0205 3.59828 -0.74091 10.4105 -0.407519 -20.3943 44.5803 9.63804 
-222.618 96.5642 236.807 -60.3035 -47.8935 -159.581 -70.1915 0 88.8779 133.351 62.5301 -46.3389 7.98029 19.4001 1.03855 -159.078 24.9219 176.443 -134.329 60.1073 165.506 2.07632 -3.0758 -26.0066 -83.4248 32.3024 -121.12 22.4556 8.1416 -69.2426 16.508 -1.1631 -6.18807 -0.117627 1.72917 29.3685 -67.0841 -56.0948 89.1432 -3.0907 12.8565 23.7004 4.43585 0.0494278 1.11132 -44.6865 -7.80926 89.3264 -8.77354 68.2535 -5.38213 3.23313 1.49743 -0.43701 -6.63045 -25.73 12.658 -18.2866 -4.17668 84.1942 2.48989 41.3067 8.95648 -3.91995 7.69642 0.362333 -5.49441 35.6156 -8.30375 
